{"title":"Aris Min Geha Amneya Arabic 2004 DVDRip X264 ACC - alrmothe","uid":8048591,"size":1631912557,"categoryP":"video","categoryS":"movies","magnet":"?xt=urn:btih:0d4cd873794fe97e07981cb9aea83be0304dff38&amp;dn=Aris+Min+Geha+Amneya+Arabic+2004+DVDRip+X264+ACC+-+alrmothe&amp;tr=udp%3A%2F%2Ftracker.openbittorrent.com%3A80&amp;tr=udp%3A%2F%2Fopen.demonii.com%3A1337&amp;tr=udp%3A%2F%2Ftracker.coppersurfer.tk%3A6969&amp;tr=udp%3A%2F%2Fexodus.desync.com%3A6969","seeders":0,"leechers":1,"uploader":".alrmothe","files":22,"time":1358805707,"description":"******************************************************\n \nAris Min Geha Amneya 2004 DVDRip X264 ACC - alrmothe\n\n******************************************************\n\nTiTLE: Aris Min Geha Amneya\nYEAR:2004\nGENRE : Comedy\nelcinema URL :http://www.elcinema.com/work/wk1001090/\nSIZE : 1.52 GB\nFormat : mp4 \nOverall bit rate:2266 Kbps\nSub: No \n*******************************************************\n\nVideo\nFormat : AVC\nFormat/Info : Advanced Video Codec\nFormat profile : &lt;a class=&quot;__cf_email__&quot; href=&quot;/cdn-cgi/l/email-protection&quot; data-cfemail=&quot;97dffef0ffd7dba4b9a7&quot;&gt;[email&amp;#160;protected]&lt;/a&gt;&lt;script cf-hash='f9e31' type=&quot;text/javascript&quot;&gt;\n/* &lt;![CDATA[ */!function(){try{var t=&quot;currentScript&quot;in document?document.currentScript:function(){for(var t=document.getElementsByTagName(&quot;script&quot;),e=t.length;e--;)if(t[e].getAttribute(&quot;cf-hash&quot;))return t[e]}();if(t&amp;&amp;t.previousSibling){var e,r,n,i,c=t.previousSibling,a=c.getAttribute(&quot;data-cfemail&quot;);if(a){for(e=&quot;&quot;,r=parseInt(a.substr(0,2),16),n=2;a.length-n;n+=2)i=parseInt(a.substr(n,2),16)^r,e+=String.fromCharCode(i);e=document.createTextNode(e),c.parentNode.replaceChild(e,c)}}}catch(u){}}();/* ]]&gt; */&lt;/script&gt;\nRuntime: 1h 35min 53sec\nbit rate: 2100 Kbps\nWidth: 708 pixels\nHeight: 436 pixels\nFrame rate: 25.398 fps\nBit depth : 8 bits\nBits/(Pixel*Frame) : 0.268\nStream size : 1.41 GiB (93%)\n\nAudio: Arabic\nFormat: ACC\nBit rate: 160 Kbps\nSampling rate: 48.0 KHz\nChannel(s): 2 channels\nStream size : 110 MiB (7%)\nLanguage : Arabic\n**********************************************************\n\n\nDVD Ø§Ù„Ù…ØµØ¯Ø± Ù‚Ø±Øµ\n\n\nScreenshots\n &lt;a href=&quot;\nhttp://img594.imageshack.us/img594/4716/vlcsnap2013012122h41m25.png&quot; rel=&quot;nofollow&quot; target=&quot;_NEW&quot;&gt;\nhttp://img594.imageshack.us/img594/4716/vlcsnap2013012122h41m25.png&lt;/a&gt; &lt;a href=&quot;\nhttp://img809.imageshack.us/img809/1331/vlcsnap2013012122h41m39.png&quot; rel=&quot;nofollow&quot; target=&quot;_NEW&quot;&gt;\nhttp://img809.imageshack.us/img809/1331/vlcsnap2013012122h41m39.png&lt;/a&gt; &lt;a href=&quot;\nhttp://img836.imageshack.us/img836/9990/vlcsnap2013012122h41m51.png&quot; rel=&quot;nofollow&quot; target=&quot;_NEW&quot;&gt;\nhttp://img836.imageshack.us/img836/9990/vlcsnap2013012122h41m51.png&lt;/a&gt; &lt;a href=&quot;\nhttp://img94.imageshack.us/img94/553/vlcsnap2013012122h42m27.png&quot; rel=&quot;nofollow&quot; target=&quot;_NEW&quot;&gt;\nhttp://img94.imageshack.us/img94/553/vlcsnap2013012122h42m27.png&lt;/a&gt;\n\n\nCode:\n\n\n &lt;a href=&quot;\nhttp://121.14.98.151:9090/announce&quot; rel=&quot;nofollow&quot; target=&quot;_NEW&quot;&gt;\nhttp://121.14.98.151:9090/announce&lt;/a&gt; &lt;a href=&quot;\nhttp://tracker.ex.ua/announce&quot; rel=&quot;nofollow&quot; target=&quot;_NEW&quot;&gt;\nhttp://tracker.ex.ua/announce&lt;/a&gt; &lt;a href=&quot;\nhttp://p2pdl.com:2710/announce&quot; rel=&quot;nofollow&quot; target=&quot;_NEW&quot;&gt;\nhttp://p2pdl.com:2710/announce&lt;/a&gt; &lt;a href=&quot;\nhttp://exodus.desync.com:6969/announce&quot; rel=&quot;nofollow&quot; target=&quot;_NEW&quot;&gt;\nhttp://exodus.desync.com:6969/announce&lt;/a&gt; &lt;a href=&quot;\nhttp://94.228.192.98/announce&quot; rel=&quot;nofollow&quot; target=&quot;_NEW&quot;&gt;\nhttp://94.228.192.98/announce&lt;/a&gt;\nudp://tracker.istole.it:80/announce\n\n\n","torrent":{"xt":"urn:btih:0d4cd873794fe97e07981cb9aea83be0304dff38","amp;dn":"Aris+Min+Geha+Amneya+Arabic+2004+DVDRip+X264+ACC+-+alrmothe","amp;tr":["udp%3A%2F%2Ftracker.openbittorrent.com%3A80","udp%3A%2F%2Fopen.demonii.com%3A1337","udp%3A%2F%2Ftracker.coppersurfer.tk%3A6969","udp%3A%2F%2Fexodus.desync.com%3A6969"],"infoHash":"0d4cd873794fe97e07981cb9aea83be0304dff38","infoHashBuffer":{"type":"Buffer","data":[13,76,216,115,121,79,233,126,7,152,28,185,174,168,59,224,48,77,255,56]},"announce":[],"urlList":[]}}